# AST/ASF file generated using VICON BodyLanguage
# -----------------------------------------------
:version 1.10
:name VICON
:units
  mass 1.0
  length 0.45
  angle deg
:documentation
   .ast/.asf automatically generated from VICON data using
   VICON BodyBuilder and BodyLanguage model FoxedUp or BRILLIANT.MOD
:root
   order TX TY TZ RX RY RZ
   axis XYZ
   position 0 0 0  
   orientation 0 0 0 
:bonedata
  begin
     id 1 
     name lhipjoint
     direction 0.711131 -0.61297 0.344326 
     length 2.29162 
     axis 0 0 0  XYZ
  end
  begin
     id 2 
     name lfemur
     direction 0.34202 -0.939693 0  
     length 6.71424  
     axis 0 0 20  XYZ
    dof rx ry rz
    limits (-160.0 20.0)
           (-70.0 70.0)
           (-60.0 70.0)
  end
  begin
     id 3 
     name ltibia
     direction 0.34202 -0.939693 0   
     length 6.7087   
     axis 0 0 20   XYZ
    dof rx
    limits (-10.0 170.0)
  end
  begin
     id 4 
     name lfoot
     direction 0.0230374 -0.0632947 0.997729   
     length 1.56743   
     axis -90 7.62852e-016 20   XYZ
    dof rx rz
    limits (-45.0 90.0)
           (-70.0 20.0)
  end
  begin
     id 5 
     name ltoes
     direction 1.53585e-011 -4.21885e-011 1   
     length 0.802914   
     axis -90 7.62852e-016 20   XYZ
    dof rx
    limits (-90.0 20.0)
  end
  begin
     id 6 
     name rhipjoint
     direction -0.733192 -0.592884 0.333043   
     length 2.36925  
     axis 0 0 0  XYZ 
  end
  begin
     id 7 
     name rfemur
     direction -0.34202 -0.939693 0   
     length 6.67027   
     axis 0 0 -20   XYZ
    dof rx ry rz
    limits (-160.0 20.0)
           (-70.0 70.0)
           (-70.0 60.0)
  end
  begin
     id 8 
     name rtibia
     direction -0.34202 -0.939693 0   
     length 6.6862   
     axis 0 0 -20   XYZ
    dof rx
    limits (-10.0 170.0)
 end
 begin
     id 9 
     name rfoot
     direction -0.0949739 -0.260939 0.960672   
     length 1.67698  
     axis -90 -7.62852e-016 -20   XYZ
    dof rx rz
    limits (-45.0 90.0)
           (-20.0 70.0)
  end
  begin
     id 10 
     name rtoes
     direction -1.5353e-011 -4.21868e-011 1   
     length 0.846298   
     axis -90 -7.62852e-016 -20   XYZ
    dof rx
    limits (-90.0 20.0)
  end
  begin
     id 11 
     name lowerback
     direction -0.0206828 0.999785 -0.00109866   
     length 2.04382   
     axis 0 0 0   XYZ
    dof rx ry rz
    limits (-20.0 45.0)
           (-30.0 30.0)
           (-30.0 30.0)
  end
  begin
     id 12 
     name upperback
     direction -0.0105003 0.999727 -0.0208904   
     length 2.04538   
     axis 0 0 0   XYZ
    dof rx ry rz
    limits (-20.0 45.0)
           (-30.0 30.0)
           (-30.0 30.0)
  end
  begin
     id 13 
     name thorax
     direction -0.000416255 0.999808 -0.0196023   
     length 2.0399   
     axis 0 0 0   XYZ
    dof rx ry rz
    limits (-20.0 45.0)
           (-30.0 30.0)
           (-30.0 30.0)
  end
  begin
     id 14 
     name lowerneck
     direction 0.0627861 0.989205 0.13241   
     length 1.46207   
     axis 0 0 0   XYZ
    dof rx ry rz
    limits (-20.0 45.0)
           (-30.0 30.0)
           (-30.0 30.0)
  end
  begin
     id 15 
     name upperneck
     direction 0.00627179 0.994526 0.104303   
     length 1.41419   
     axis 0 0 0   XYZ
    dof rx ry rz
    limits (-20.0 45.0)
           (-30.0 30.0)
           (-30.0 30.0)
  end
  begin
     id 16
     name head
     direction -0.00443838 0.999688 0.0245968  
     length 1.50718  
     axis 0 0 0   XYZ
    dof rx ry rz
    limits (-20.0 45.0)
           (-30.0 30.0)
           (-30.0 30.0)
  end
  begin
     id 17 
     name lclavicle
     direction 0.758742 0.650995 -0.0227258  
     length 2.86888  
     axis 0 0 0   XYZ
    dof ry rz
    limits (-20.0 10.0)
           (0.0 20.0)
  end
  begin
     id 18 
     name lhumerus
     direction 1 -4.48962e-011 1.06664e-027   
     length 4.65776   
     axis -180 -30 -90   XYZ
    dof rx ry rz
    limits (-60.0 90.0)
           (-90.0 90.0)
           (-90.0 90.0)
  end
  begin
     id 19
     name lradius
     direction 1 -4.48968e-011 1.40404e-026   
     length 3.55539   
     axis -180 -30 -90   XYZ
    dof rx
    limits (-10.0 170.0)
  end
  begin
     id 20
     name lwrist
     direction 1 -4.48976e-011 3.32647e-026   
     length 1.77769   
     axis -2.20186e-014 90 90   XYZ
    dof ry
    limits (-180.0 0.0)
 end
  begin
     id 21 
     name lhand
     direction 1 -4.48982e-011 6.65293e-026   
     length 0.707264   
     axis -4.24514e-014 90 90   XYZ
    dof rx rz
    limits (-90.0 90.0)
           (-45.0 45.0)
  end
  begin
     id 22 
     name lfingers
     direction 1 -4.48966e-011 1.33059e-025   
     length 0.570215   
     axis -8.49028e-014 90 90   XYZ
    dof rx
    limits (0.0 90.0)
  end
  begin
     id 23
     name lthumb
     direction 0.707107 -6.3493e-011 0.707107   
     length 0.818718   
     axis -90 45 2.85299e-015   XYZ
    dof rx rz
    limits (-45.0 45.0)
           (-45.0 45.0)
  end
  begin
     id 24 
     name rclavicle
     direction -0.870343 0.482028 -0.100759   
     length 3.2251  
     axis 0 0 0   XYZ 
    dof ry rz
    limits (-10.0 20.0)
           (-20.0 0.0)
  end
  begin
     id 25 
     name rhumerus
     direction -1 -4.48974e-011 -9.45849e-028  
     length 4.71925   
     axis -180 30 90   XYZ
    dof rx ry rz
    limits (-90.0 60.0)
           (-90.0 90.0)
           (-90.0 90.0)
  end
  begin
     id 26 
     name rradius
     direction -1 -4.48965e-011 1.17607e-026   
     length 3.5699   
     axis -180 30 90   XYZ
    dof rx
    limits (-10.0 170.0)
  end
  begin
     id 27 
     name rwrist
     direction -1 -4.48968e-011 3.32647e-026   
     length 1.78495   
     axis -2.20186e-014 -90 -90   XYZ
    dof ry
    limits (-180.0 0.0)
  end
  begin
     id 28
     name rhand
     direction -1 -4.48995e-011 6.65293e-026   
     length 0.507757   
     axis -4.24514e-014 -90 -90   XYZ
    dof rx rz
    limits (-90.0 90.0)
           (-45.0 45.0)
  end
  begin
     id 29
     name rfingers
     direction -1 -4.48864e-011 1.33059e-025   
     length 0.409367   
     axis -8.49028e-014 -90 -90   XYZ
    dof rx
    limits (0.0 90.0)
  end
  begin
     id 30
     name rthumb
     direction -0.707107 -6.3494e-011 0.707107   
     length 0.587771   
     axis -90 -45 -2.85299e-015   XYZ
    dof rx rz
    limits (-45.0 45.0)
           (-45.0 45.0)
  end
:hierarchy
  begin
    root lhipjoint rhipjoint lowerback
    lhipjoint lfemur
    lfemur ltibia
    ltibia lfoot
    lfoot ltoes
    rhipjoint rfemur
    rfemur rtibia
    rtibia rfoot
    rfoot rtoes
    lowerback upperback
    upperback thorax
    thorax lowerneck lclavicle rclavicle
    lowerneck upperneck
    upperneck head
    lclavicle lhumerus
    lhumerus lradius
    lradius lwrist
    lwrist lhand lthumb
    lhand lfingers
    rclavicle rhumerus
    rhumerus rradius
    rradius rwrist
    rwrist rhand rthumb
    rhand rfingers
  end

#!OML:ASF E:\Steps\Project 1\Capture day 1\Session 2\Subject.ASF
:FULLY-SPECIFIED
:DEGREES
1
root 7.10026 16.3257 31.3131 -155.76 -4.64179 178.345
lowerback -28.2462 -2.11209 -6.74992
upperback -0.471701 -1.07358 0.183843
thorax 14.5912 -1.14528 3.42477
lowerneck -0.963195 -3.33119 -1.88963
upperneck 20.2709 -6.75551 2.95891
head 6.47444 -3.82507 0.791026
rclavicle -1.0138e-014 -1.09332e-014
rhumerus -39.4223 -26.0631 -71.4777
rradius 27.2889
rwrist 7.84613
rhand -8.43694 -56.8475
rfingers 7.12502
rthumb 17.4884 -86.0809
lclavicle -1.0138e-014 -1.09332e-014
lhumerus -26.5928 4.81084 82.0427
lradius 32.6972
lwrist -0.107529
lhand -23.068 -15.3397
lfingers 7.12502
lthumb 3.37743 14.6133
rfemur -21.128 6.40484 19.7354
rtibia 6.31159
rfoot -19.2235 -9.61185
rtoes -32.1719
lfemur -22.5579 -8.82295 -19.5497
ltibia 9.52339
lfoot -9.41429 3.42623
ltoes -31.975
2
root 7.09883 16.3276 31.3094 -155.695 -4.61109 178.396
lowerback -28.2868 -2.11267 -6.66604
upperback -0.482747 -1.10092 0.177161
thorax 14.5996 -1.15256 3.36018
lowerneck -0.898298 -3.3467 -1.81031
upperneck 20.0211 -6.74693 3.00138
head 6.38192 -3.80492 0.798286
rclavicle 3.47873e-015 -6.75868e-015
rhumerus -39.2357 -25.8579 -71.7834
rradius 27.6206
rwrist 7.52778
rhand -8.46731 -56.4607
rfingers 7.12502
rthumb 17.4592 -85.6967
lclavicle 3.47873e-015 -6.75868e-015
lhumerus -26.5401 4.54001 82.129
lradius 33.0195
lwrist -0.0333141
lhand -23.1159 -15.3476
lfingers 7.12502
lthumb 3.33116 14.6062
rfemur -21.1755 6.47146 19.7685
rtibia 6.26481
rfoot -19.2084 -9.60912
rtoes -31.9527
lfemur -22.6068 -8.78933 -19.4904
ltibia 9.50217
lfoot -9.46208 3.40227
ltoes -31.4918
3
root 7.09662 16.3278 31.3046 -155.66 -4.51244 178.396
lowerback -28.2834 -2.08584 -6.61871
upperback -0.537561 -1.08894 0.159904
thorax 14.5315 -1.14352 3.31976
lowerneck -0.61622 -3.40991 -1.75783
upperneck 19.6473 -6.7881 2.98389
head 6.21301 -3.81964 0.795967
rclavicle -3.52843e-015 1.59028e-015
rhumerus -39.1782 -25.8668 -71.8224
rradius 27.7835
rwrist 7.44606
rhand -8.18869 -55.8101
rfingers 7.12502
rthumb 17.7273 -85.022
lclavicle -3.52843e-015 1.59028e-015
lhumerus -26.6186 4.17393 82.2716
lradius 33.3499
lwrist 0.158131
lhand -23.2335 -15.3293
lfingers 7.12502
lthumb 3.21765 14.6261
rfemur -21.1725 6.27455 19.7805
rtibia 6.18828
rfoot -19.0514 -9.38585
rtoes -32.1358
lfemur -22.5603 -8.77323 -19.5247
ltibia 9.41356
lfoot -9.49788 3.48705
ltoes -31.5249
4
root 7.09461 16.3253 31.2996 -155.726 -4.3911 178.244
lowerback -28.1597 -2.12764 -6.7785
upperback -0.559142 -1.10284 0.160285
thorax 14.4507 -1.15817 3.40403
lowerneck -0.482179 -3.47551 -1.72582
upperneck 19.3982 -6.81177 2.81754
head 6.1048 -3.83475 0.745418
rclavicle -3.8763e-015 -1.23246e-014
rhumerus -39.0478 -25.6903 -71.8999
rradius 27.9746
rwrist 7.29159
rhand -7.94497 -55.6289
rfingers 7.12502
rthumb 17.9618 -84.8195
lclavicle -3.8763e-015 -1.23246e-014
lhumerus -26.668 4.00578 82.4177
lradius 33.5804
lwrist 0.198216
lhand -23.1648 -15.4434
lfingers 7.12502
lthumb 3.28399 14.5111
rfemur -21.0314 5.95648 19.6393
rtibia 6.09546
rfoot -18.9312 -9.11407
rtoes -32.7538
lfemur -22.3825 -8.74554 -19.777
ltibia 9.32385
lfoot -9.47975 3.5454
ltoes -32.0568
5
root 7.09372 16.3233 31.2956 -155.78 -4.3219 178.2
lowerback -28.077 -2.16119 -6.83849
upperback -0.568369 -1.13711 0.187824
thorax 14.4062 -1.17655 3.45526
lowerneck -0.517042 -3.46223 -1.75485
upperneck 19.3814 -6.76893 2.73733
head 6.10245 -3.81882 0.72694
rclavicle 1.3418e-015 1.66979e-014
rhumerus -38.8678 -25.3164 -72.1651
rradius 28.2956
rwrist 6.93297
rhand -7.99638 -55.6527
rfingers 7.12502
rthumb 17.9123 -84.8478
lclavicle 1.3418e-015 1.66979e-014
lhumerus -26.677 3.87534 82.5157
lradius 33.7532
lwrist 0.162497
lhand -23.1876 -15.594
lfingers 7.12502
lthumb 3.26194 14.3608
rfemur -20.9742 6.03594 19.5664
rtibia 6.11702
rfoot -19.015 -9.10573
rtoes -32.8731
lfemur -22.2739 -8.75233 -19.85
ltibia 9.25025
lfoot -9.44257 3.60455
ltoes -31.8843
6
root 7.09135 16.3236 31.2924 -155.758 -4.2492 178.275
lowerback -28.0959 -2.13477 -6.73652
upperback -0.60219 -1.14169 0.199176
thorax 14.3757 -1.17241 3.40982
lowerneck -0.430026 -3.42434 -1.78374
upperneck 19.332 -6.72135 2.77269
head 6.07264 -3.798 0.748655
rclavicle 3.62782e-015 -1.51076e-014
rhumerus -38.7566 -25.0482 -72.4392
rradius 28.607
rwrist 6.64134
rhand -8.27979 -55.9608
rfingers 7.12502
rthumb 17.6396 -85.1806
lclavicle 3.62782e-015 -1.51076e-014
lhumerus -26.7199 3.71946 82.5645
lradius 33.9092
lwrist 0.166626
lhand -23.1112 -15.8535
lfingers 7.12502
lthumb 3.33576 14.1001
rfemur -21.0341 6.21689 19.6093
rtibia 6.1789
rfoot -19.1015 -9.13283
rtoes -32.7037
lfemur -22.2483 -8.78948 -19.7631
ltibia 9.14566
lfoot -9.43239 3.72253
ltoes -31.4942
7
root 7.08969 16.3249 31.2906 -155.734 -4.12098 178.246
lowerback -28.1022 -2.11241 -6.75576
upperback -0.628782 -1.10804 0.173501
thorax 14.3431 -1.15836 3.4047
lowerneck -0.346676 -3.37928 -1.83179
upperneck 19.2565 -6.6712 2.88566
head 6.03822 -3.77087 0.798345
rclavicle 7.65321e-015 2.14687e-014
rhumerus -38.6844 -24.8777 -72.6564
rradius 28.9135
rwrist 6.40561
rhand -8.43536 -56.3805
rfingers 7.12502
rthumb 17.4899 -85.6137
lclavicle 7.65321e-015 2.14687e-014
lhumerus -26.7109 3.5306 82.6101
lradius 33.942
lwrist 0.183271
lhand -22.869 -16.0144
lfingers 7.12502
lthumb 3.56963 13.9355
rfemur -21.0563 6.30808 19.5326
rtibia 6.16242
rfoot -19.1098 -9.12687
rtoes -32.6154
lfemur -22.2268 -8.77657 -19.8299
ltibia 9.12395
lfoot -9.49557 3.79972
ltoes -31.6011
8
root 7.08934 16.3249 31.2895 -155.714 -4.01522 178.173
lowerback -28.0572 -2.12056 -6.85361
upperback -0.672039 -1.09718 0.167468
thorax 14.2706 -1.15913 3.4559
lowerneck -0.363568 -3.3501 -1.85054
upperneck 19.2536 -6.62893 2.89462
head 6.03985 -3.7505 0.806241
rclavicle 7.8023e-015 -1.82882e-014
rhumerus -38.6112 -24.7177 -72.8071
rradius 29.2062
rwrist 6.1075
rhand -8.34286 -56.3552
rfingers 7.12502
rthumb 17.5789 -85.5804
lclavicle 7.8023e-015 -1.82882e-014
lhumerus -26.7062 3.2562 82.7269
lradius 33.9287
lwrist 0.241009
lhand -23.0494 -15.9884
lfingers 7.12502
lthumb 3.39543 13.9643
rfemur -21.0726 6.37832 19.4102
rtibia 6.14485
rfoot -19.1471 -9.13899
rtoes -32.5415
lfemur -22.2528 -8.6008 -19.9639
ltibia 9.18474
lfoot -9.54202 3.67431
ltoes -31.9151
9
root 7.08811 16.3238 31.2862 -155.717 -3.94048 178.158
lowerback -28.0133 -2.13327 -6.89267
upperback -0.707826 -1.11376 0.196055
thorax 14.2113 -1.16898 3.5026
lowerneck -0.298943 -3.34803 -1.79642
upperneck 19.1418 -6.58419 2.74274
head 5.98553 -3.7327 0.756071
rclavicle 1.73937e-014 2.36554e-014
rhumerus -38.4901 -24.4671 -72.9762
rradius 29.4992
rwrist 5.71445
rhand -8.22553 -56.4692
rfingers 7.12502
rthumb 17.6918 -85.6843
lclavicle 1.73937e-014 2.36554e-014
lhumerus -26.8054 2.95997 82.8994
lradius 34.0366
lwrist 0.246118
lhand -23.5366 -15.9707
lfingers 7.12502
lthumb 2.92493 13.989
rfemur -21.0095 6.32071 19.3897
rtibia 6.03987
rfoot -19.0868 -9.06413
rtoes -32.5304
lfemur -22.2102 -8.44697 -20.0221
ltibia 9.13537
lfoot -9.47955 3.53783
ltoes -31.4715
